<svg width="238" height="40" viewBox="0 0 238 40" fill="none" xmlns="http://www.w3.org/2000/svg">
<path d="M0 6V0H6V2H2V6H0Z" fill="#1A1A1A"/>
<path d="M0 34V40H6V38H2V34H0Z" fill="#1A1A1A"/>
<path d="M34 40H40V34H38V38H34V40Z" fill="#1A1A1A"/>
<path d="M40 6V0H34V2H38V6H40Z" fill="#1A1A1A"/>
<path d="M7 22H9V28H7V22Z" fill="#A18FCD" fill-opacity="0.48"/>
<path d="M19 22H21V36H19V22Z" fill="#A18FCD" fill-opacity="0.48"/>
<path d="M15 22H13V34H15V22Z" fill="#A18FCD" fill-opacity="0.48"/>
<path d="M31 22H33V32H31V22Z" fill="#A18FCD" fill-opacity="0.48"/>
<path d="M27 22H25V26H27V22Z" fill="#A18FCD" fill-opacity="0.48"/>
<path d="M10 22H6V24H10V22Z" fill="#A18FCD"/>
<path d="M22 22H18V32H22V22Z" fill="#A18FCD"/>
<path d="M12 22H16V30H12V22Z" fill="#A18FCD"/>
<path d="M34 22H30V28H34V22Z" fill="#A18FCD"/>
<path d="M19 4H21V20H19V4Z" fill="#3C1596" fill-opacity="0.48"/>
<path d="M7 8H9V20H7V8Z" fill="#3C1596" fill-opacity="0.48"/>
<path d="M15 14H13V20H15V14Z" fill="#3C1596" fill-opacity="0.48"/>
<path d="M31 8H33V20H31V8Z" fill="#3C1596" fill-opacity="0.48"/>
<path d="M27 10H25V20H27V10Z" fill="#3C1596" fill-opacity="0.48"/>
<path d="M18 8H22V20H18V8Z" fill="#3C1596"/>
<path d="M10 12H6V20H10V12Z" fill="#3C1596"/>
<path d="M28 14H24V20H28V14Z" fill="#3C1596"/>
<path d="M34 12H30V20H34V12Z" fill="#3C1596"/>
<rect y="18" width="40" height="2" fill="#B52DC8"/>
<path d="M61.172 28.372C65.795 28.372 69.544 24.738 69.544 20C69.544 15.262 65.795 11.628 61.172 11.628C56.549 11.628 52.8 15.262 52.8 20C52.8 24.738 56.549 28.372 61.172 28.372ZM61.172 24.784C58.55 24.784 56.48 22.875 56.48 20C56.48 17.125 58.55 15.216 61.172 15.216C63.794 15.216 65.864 17.125 65.864 20C65.864 22.875 63.794 24.784 61.172 24.784Z" fill="#1A1A1A"/>
<path d="M77.711 11.95H71.616V28.05H75.296V22.99H77.711C80.885 22.99 83.346 20.529 83.346 17.47C83.346 14.411 80.885 11.95 77.711 11.95ZM77.711 19.54H75.296V15.4H77.711C78.838 15.4 79.666 16.297 79.666 17.47C79.666 18.643 78.838 19.54 77.711 19.54Z" fill="#1A1A1A"/>
<path d="M95.7678 11.95H83.8078V15.492H87.9478V28.05H91.6278V15.492H95.7678V11.95Z" fill="#1A1A1A"/>
<path d="M97.3787 11.95V28.05H101.059V11.95H97.3787Z" fill="#1A1A1A"/>
<path d="M111.507 28.372C116.13 28.372 119.879 24.738 119.879 20C119.879 15.262 116.13 11.628 111.507 11.628C106.884 11.628 103.135 15.262 103.135 20C103.135 24.738 106.884 28.372 111.507 28.372ZM111.507 24.784C108.885 24.784 106.815 22.875 106.815 20C106.815 17.125 108.885 15.216 111.507 15.216C114.129 15.216 116.199 17.125 116.199 20C116.199 22.875 114.129 24.784 111.507 24.784Z" fill="#1A1A1A"/>
<path d="M130.921 11.95V20.69L124.711 11.95H121.951V28.05H125.631V19.31L131.841 28.05H134.601V11.95H130.921Z" fill="#1A1A1A"/>
<path d="M142.902 28.303C141.415 28.303 140.15 27.9657 139.107 27.291C138.08 26.601 137.382 25.6733 137.014 24.508L138.072 23.887C138.363 24.8837 138.915 25.6733 139.728 26.256C140.556 26.8387 141.614 27.13 142.902 27.13C144.205 27.13 145.202 26.831 145.892 26.233C146.597 25.635 146.95 24.8607 146.95 23.91C146.95 23.0207 146.613 22.3383 145.938 21.863C145.263 21.3877 144.213 20.92 142.787 20.46C142.266 20.2913 141.882 20.1687 141.637 20.092C141.407 20 141.07 19.8697 140.625 19.701C140.18 19.517 139.851 19.356 139.636 19.218C139.421 19.08 139.161 18.896 138.854 18.666C138.563 18.436 138.348 18.206 138.21 17.976C138.072 17.7307 137.949 17.447 137.842 17.125C137.735 16.7877 137.681 16.4197 137.681 16.021C137.681 14.7177 138.141 13.675 139.061 12.893C139.996 12.0957 141.162 11.697 142.557 11.697C143.814 11.697 144.888 12.0113 145.777 12.64C146.666 13.2687 147.318 14.0813 147.732 15.078L146.697 15.653C145.93 13.7977 144.55 12.87 142.557 12.87C141.453 12.87 140.571 13.1613 139.912 13.744C139.253 14.3267 138.923 15.0703 138.923 15.975C138.923 16.849 139.23 17.5007 139.843 17.93C140.456 18.3593 141.461 18.804 142.856 19.264C143.745 19.5553 144.435 19.8083 144.926 20.023C145.432 20.2223 145.969 20.506 146.536 20.874C147.119 21.2267 147.54 21.656 147.801 22.162C148.062 22.6527 148.192 23.2277 148.192 23.887C148.192 25.221 147.709 26.2943 146.743 27.107C145.777 27.9043 144.497 28.303 142.902 28.303Z" fill="#1A1A1A"/>
<path d="M158.527 28.303C156.104 28.303 154.103 27.5057 152.524 25.911C150.945 24.301 150.155 22.3307 150.155 20C150.155 17.6693 150.945 15.7067 152.524 14.112C154.103 12.502 156.104 11.697 158.527 11.697C159.999 11.697 161.348 12.0497 162.575 12.755C163.802 13.445 164.752 14.3803 165.427 15.561L164.346 16.182C163.809 15.1853 163.02 14.388 161.977 13.79C160.934 13.1767 159.784 12.87 158.527 12.87C156.442 12.87 154.724 13.56 153.375 14.94C152.041 16.3047 151.374 17.9913 151.374 20C151.374 22.0087 152.041 23.703 153.375 25.083C154.724 26.4477 156.442 27.13 158.527 27.13C159.784 27.13 160.942 26.8233 162 26.21C163.058 25.5967 163.855 24.7763 164.392 23.749L165.473 24.37C164.814 25.566 163.863 26.5243 162.621 27.245C161.379 27.9503 160.014 28.303 158.527 28.303Z" fill="#1A1A1A"/>
<path d="M178.956 28.05L177.392 23.956H169.319L167.755 28.05H166.467L172.723 11.95H174.011L180.244 28.05H178.956ZM169.779 22.806H176.955L173.367 13.445L169.779 22.806Z" fill="#1A1A1A"/>
<path d="M193.168 11.95H194.387V28.05H193.306L183.807 14.204V28.05H182.588V11.95H183.646L193.168 25.796V11.95Z" fill="#1A1A1A"/>
<path d="M208.958 11.95H210.177V28.05H209.096L199.597 14.204V28.05H198.378V11.95H199.436L208.958 25.796V11.95Z" fill="#1A1A1A"/>
<path d="M215.387 26.9H223.437V28.05H214.168V11.95H223.322V13.1H215.387V19.356H222.747V20.506H215.387V26.9Z" fill="#1A1A1A"/>
<path d="M236.597 28.05L232.733 21.449H227.65V28.05H226.431V11.95H232.779C234.083 11.95 235.202 12.4177 236.137 13.353C237.073 14.2883 237.54 15.4077 237.54 16.711C237.54 17.7997 237.203 18.7657 236.528 19.609C235.869 20.4523 235.026 21.012 233.998 21.288L238 28.05H236.597ZM227.65 13.1V20.299H232.779C233.761 20.299 234.596 19.954 235.286 19.264C235.976 18.5587 236.321 17.7077 236.321 16.711C236.321 15.7143 235.976 14.8633 235.286 14.158C234.596 13.4527 233.761 13.1 232.779 13.1H227.65Z" fill="#1A1A1A"/>
</svg>
