<svg width="193" height="40" viewBox="0 0 193 40" fill="none" xmlns="http://www.w3.org/2000/svg">
<path d="M20.1652 40C31.2109 40 40.1652 31.0457 40.1652 20C40.1652 8.95431 31.2109 0 20.1652 0C12.3353 0 5.55626 4.49944 2.27271 11.0538L7.23279 13.5338C9.62585 8.78153 14.5482 5.52144 20.2321 5.52144C24.1976 5.52144 27.7926 7.10838 30.4164 9.68184L25.2733 14.8249C23.966 13.5673 22.1893 12.7942 20.2321 12.7942C16.2154 12.7942 12.9593 16.0503 12.9593 20.0669C12.9593 24.0835 16.2154 27.3396 20.2321 27.3396C22.2574 27.3396 24.0893 26.5117 25.408 25.1759L30.5506 30.3186C27.9158 32.9705 24.2657 34.6124 20.2321 34.6124C14.5056 34.6124 9.55211 31.3032 7.17942 26.4929L2.27271 28.9462C5.55626 35.5006 12.3353 40 20.1652 40Z" fill="url(#paint0_linear)"/>
<path d="M55.2957 27.5994C53.0534 27.5994 51.1783 26.8453 49.6702 25.3373C48.182 23.8292 47.4379 21.964 47.4379 19.7415C47.4379 17.5191 48.182 15.6539 49.6702 14.1458C51.1783 12.6377 53.0534 11.8837 55.2957 11.8837C56.7443 11.8837 58.0638 12.2309 59.2544 12.9255C60.445 13.62 61.3478 14.5526 61.963 15.7233L58.6591 17.658C58.3615 17.0429 57.9051 16.5567 57.2899 16.1996C56.6946 15.8424 56.02 15.6638 55.2659 15.6638C54.1151 15.6638 53.1626 16.0507 52.4085 16.8246C51.6545 17.5786 51.2775 18.551 51.2775 19.7415C51.2775 20.9123 51.6545 21.8846 52.4085 22.6585C53.1626 23.4125 54.1151 23.7895 55.2659 23.7895C56.0398 23.7895 56.7244 23.6209 57.3197 23.2835C57.9348 22.9263 58.3912 22.4402 58.6889 21.8251L62.0225 23.73C61.3677 24.9007 60.445 25.8433 59.2544 26.5576C58.0638 27.2521 56.7443 27.5994 55.2957 27.5994Z" fill="black"/>
<path d="M75.3098 25.3373C73.7819 26.8453 71.9167 27.5994 69.7141 27.5994C67.5115 27.5994 65.6463 26.8453 64.1183 25.3373C62.6103 23.8094 61.8562 21.9441 61.8562 19.7415C61.8562 17.539 62.6103 15.6836 64.1183 14.1756C65.6463 12.6476 67.5115 11.8837 69.7141 11.8837C71.9167 11.8837 73.7819 12.6476 75.3098 14.1756C76.8377 15.6836 77.6017 17.539 77.6017 19.7415C77.6017 21.9441 76.8377 23.8094 75.3098 25.3373ZM66.8269 22.6882C67.6008 23.4621 68.5632 23.849 69.7141 23.849C70.865 23.849 71.8274 23.4621 72.6012 22.6882C73.3751 21.9144 73.7621 20.9321 73.7621 19.7415C73.7621 18.551 73.3751 17.5687 72.6012 16.7948C71.8274 16.021 70.865 15.634 69.7141 15.634C68.5632 15.634 67.6008 16.021 66.8269 16.7948C66.0729 17.5687 65.6959 18.551 65.6959 19.7415C65.6959 20.9321 66.0729 21.9144 66.8269 22.6882Z" fill="black"/>
<path d="M88.3234 12.3004H92.55L86.8947 27.1827H82.5194L76.8641 12.3004H81.0907L84.6922 22.718L88.3234 12.3004Z" fill="black"/>
<path d="M95.8739 21.3191C96.3898 23.1843 97.7887 24.1169 100.071 24.1169C101.539 24.1169 102.65 23.6209 103.404 22.6287L106.5 24.4146C105.031 26.5378 102.869 27.5994 100.011 27.5994C97.5506 27.5994 95.5762 26.8553 94.088 25.367C92.5998 23.8788 91.8557 22.0036 91.8557 19.7415C91.8557 17.4993 92.5899 15.634 94.0582 14.1458C95.5266 12.6377 97.4117 11.8837 99.7135 11.8837C101.896 11.8837 103.692 12.6377 105.101 14.1458C106.53 15.6539 107.244 17.5191 107.244 19.7415C107.244 20.2376 107.194 20.7635 107.095 21.3191H95.8739ZM95.8144 18.3426H103.404C103.186 17.3306 102.73 16.5766 102.035 16.0805C101.36 15.5844 100.587 15.3364 99.7135 15.3364C98.6817 15.3364 97.8284 15.6043 97.1538 16.14C96.4791 16.6559 96.0326 17.3901 95.8144 18.3426Z" fill="black"/>
<path d="M112.573 14.8601C112.931 13.9077 113.516 13.1933 114.33 12.7171C115.163 12.2409 116.086 12.0027 117.098 12.0027V16.2888C115.927 16.1499 114.875 16.3881 113.943 17.0032C113.03 17.6183 112.573 18.6402 112.573 20.0689V27.1827H108.734V12.3004H112.573V14.8601Z" fill="black"/>
<path d="M120.845 21.3191C121.361 23.1843 122.76 24.1169 125.042 24.1169C126.51 24.1169 127.621 23.6209 128.375 22.6287L131.471 24.4146C130.002 26.5378 127.839 27.5994 124.982 27.5994C122.521 27.5994 120.547 26.8553 119.059 25.367C117.571 23.8788 116.827 22.0036 116.827 19.7415C116.827 17.4993 117.561 15.634 119.029 14.1458C120.497 12.6377 122.383 11.8837 124.684 11.8837C126.867 11.8837 128.663 12.6377 130.072 14.1458C131.5 15.6539 132.215 17.5191 132.215 19.7415C132.215 20.2376 132.165 20.7635 132.066 21.3191H120.845ZM120.785 18.3426H128.375C128.157 17.3306 127.7 16.5766 127.006 16.0805C126.331 15.5844 125.557 15.3364 124.684 15.3364C123.653 15.3364 122.799 15.6043 122.125 16.14C121.45 16.6559 121.003 17.3901 120.785 18.3426Z" fill="black"/>
<path d="M144.869 6.34748H148.709V27.1827H144.869V25.4266C143.738 26.8751 142.131 27.5994 140.047 27.5994C138.043 27.5994 136.327 26.8453 134.898 25.3373C133.489 23.8094 132.785 21.9441 132.785 19.7415C132.785 17.539 133.489 15.6836 134.898 14.1756C136.327 12.6476 138.043 11.8837 140.047 11.8837C142.131 11.8837 143.738 12.608 144.869 14.0565V6.34748ZM137.785 22.7775C138.579 23.5514 139.571 23.9383 140.762 23.9383C141.952 23.9383 142.934 23.5514 143.708 22.7775C144.482 21.9838 144.869 20.9718 144.869 19.7415C144.869 18.5113 144.482 17.5092 143.708 16.7353C142.934 15.9416 141.952 15.5447 140.762 15.5447C139.571 15.5447 138.579 15.9416 137.785 16.7353C137.011 17.5092 136.624 18.5113 136.624 19.7415C136.624 20.9718 137.011 21.9838 137.785 22.7775Z" fill="black"/>
<path d="M158.114 27.5994C155.871 27.5994 153.996 26.8453 152.488 25.3373C151 23.8292 150.256 21.964 150.256 19.7415C150.256 17.5191 151 15.6539 152.488 14.1458C153.996 12.6377 155.871 11.8837 158.114 11.8837C159.562 11.8837 160.882 12.2309 162.072 12.9255C163.263 13.62 164.166 14.5526 164.781 15.7233L161.477 17.658C161.179 17.0429 160.723 16.5567 160.108 16.1996C159.513 15.8424 158.838 15.6638 158.084 15.6638C156.933 15.6638 155.981 16.0507 155.227 16.8246C154.472 17.5786 154.095 18.551 154.095 19.7415C154.095 20.9123 154.472 21.8846 155.227 22.6585C155.981 23.4125 156.933 23.7895 158.084 23.7895C158.858 23.7895 159.542 23.6209 160.138 23.2835C160.753 22.9263 161.209 22.4402 161.507 21.8251L164.84 23.73C164.186 24.9007 163.263 25.8433 162.072 26.5576C160.882 27.2521 159.562 27.5994 158.114 27.5994Z" fill="black"/>
<path d="M176.759 12.3004H180.598V27.1827H176.759V25.4266C175.608 26.8751 173.991 27.5994 171.907 27.5994C169.923 27.5994 168.216 26.8453 166.787 25.3373C165.379 23.8094 164.674 21.9441 164.674 19.7415C164.674 17.539 165.379 15.6836 166.787 14.1756C168.216 12.6476 169.923 11.8837 171.907 11.8837C173.991 11.8837 175.608 12.608 176.759 14.0565V12.3004ZM169.675 22.7775C170.449 23.5514 171.431 23.9383 172.621 23.9383C173.812 23.9383 174.794 23.5514 175.568 22.7775C176.362 21.9838 176.759 20.9718 176.759 19.7415C176.759 18.5113 176.362 17.5092 175.568 16.7353C174.794 15.9416 173.812 15.5447 172.621 15.5447C171.431 15.5447 170.449 15.9416 169.675 16.7353C168.901 17.5092 168.514 18.5113 168.514 19.7415C168.514 20.9718 168.901 21.9838 169.675 22.7775Z" fill="black"/>
<path d="M182.889 27.1827V5.45455H186.729V27.1827H182.889Z" fill="black"/>
<path d="M189.053 27.1827V5.45455H192.892V27.1827H189.053Z" fill="black"/>
<defs>
<linearGradient id="paint0_linear" x1="2.43788" y1="16.3636" x2="10.727" y2="44.9113" gradientUnits="userSpaceOnUse">
<stop stop-color="#B52DC8"/>
<stop offset="0.518414" stop-color="#210B56"/>
<stop offset="1" stop-color="#6817C5"/>
</linearGradient>
</defs>
</svg>
