<?xml version="1.0" standalone="no"?>
<!DOCTYPE svg PUBLIC "-//W3C//DTD SVG 1.1//EN" "http://www.w3.org/Graphics/SVG/1.1/DTD/svg11.dtd" >
<svg xmlns="http://www.w3.org/2000/svg">
<metadata>Generated by IcoMoon</metadata>
<defs>
<font id="cc" horiz-adv-x="1024">
<font-face units-per-em="1024" ascent="960" descent="-64" />
<missing-glyph horiz-adv-x="1024" />
<glyph unicode="&#x20;" horiz-adv-x="512" d="" />
<glyph unicode="&#xe900;" glyph-name="menu" d="M128 736v-64h768v64h-768zM128 480v-64h768v64h-768zM128 224v-64h768v64h-768z" />
<glyph unicode="&#xe901;" glyph-name="settings" d="M422 864l-5.002-26-18.998-95c-30.499-12-58-28.875-83-49l-93 32-25 8-13-23-64-110.002-13-22.998 19-17.002 72-62.998c-2.625-16.374-6-32.749-6-50s3.375-33.626 6-50l-72-62.998-19-17.002 13-22.998 64-110.003 13-22.998 25 8 93 32c25-20.125 52.501-36.998 83-49.002l18.998-94.998 5.002-26h180l5.002 26 18.998 94.998c30.499 12 58 28.877 82.998 49.002l93.002-32 25.002-8 12.998 22.998 64 110.003 12.998 22.998-18.998 17.002-72 62.998c2.624 16.374 6 32.749 6 50s-3.376 33.626-6 50l72 62.998 18.998 17.002-12.998 22.998-64 110.002-12.998 23-25.002-8-93.002-32c-24.998 20.125-52.499 37-82.998 49l-18.998 95-5.002 26h-180zM474 800h76l16-83 4-19 18-6c36.374-11.375 69.376-30.625 97.002-56l14-12.998 18 5.997 80.998 28.002 38-65-64-57.002-14.998-12 4.998-18.998c4.125-18.25 6-36.874 6-56s-1.875-37.75-6-56l-4-19.002 14-12 64-56.998-38-65.002-80.998 28-18 6-14-12.998c-27.626-25.376-60.627-44.624-97.002-56l-18-6-4-19.002-16-82.998h-76l-16 82.998-4 19.002-18 6c-36.374 11.376-69.376 30.624-96.998 56l-14 12.998-18.002-6-81-28-38 65.002 64 56.998 15 12-5 19.002c-4.125 18.25-6 36.874-6 56 0 19.123 1.875 37.75 6 56l5 18.998-15 12-64 57.002 38 65 81-28.001 18.002-6 14 13.002c27.622 25.375 60.624 44.625 96.998 56l18 6 4 19 16 83zM512 608c-88 0-160-72-160-160s72-160 160-160c88 0 160 72 160 160s-72 160-160 160zM512 544c53.376 0 96-42.624 96-96s-42.624-96-96-96c-53.376 0-96 42.624-96 96s42.624 96 96 96z" />
<glyph unicode="&#xe902;" glyph-name="slider" d="M480 800c-41.376 0-76.624-27-90-64h-262v-64h262c13.376-36.998 48.624-64 90-64s76.624 27.002 90 64h326v64h-326c-13.376 37-48.624 64-90 64zM480 736c18 0 32-14 32-32s-14-32-32-32c-18 0-32 14-32 32s14 32 32 32zM704 544c-41.376 0-76.624-27.002-90-64h-486v-64h486c13.376-36.998 48.624-64 90-64s76.624 27.002 90 64h102v64h-102c-13.376 36.998-48.624 64-90 64zM704 480c18 0 32-14 32-32s-14-32-32-32c-18 0-32 14-32 32s14 32 32 32zM352 288c-41.375 0-76.625-27.002-90-64h-134v-64h134c13.375-36.998 48.625-64 90-64s76.624 27.002 90 64h454v64h-454c-13.376 36.998-48.624 64-90 64zM352 224c18 0 32-14 32-32s-14-32-32-32c-18 0-32 14-32 32s14 32 32 32z" />
<glyph unicode="&#xe903;" glyph-name="search" d="M608 864c-176.374 0-320-143.625-320-320 0-76.624 26.875-146.874 72-202l-255-254.998 46-46.003 255 255.002c55.126-45.126 125.376-72 202-72 176.374 0 320 143.626 320 320s-143.626 320-320 320zM608 800c141.75 0 256-114.25 256-256s-114.25-256-256-256c-141.75 0-256 114.25-256 256s114.25 256 256 256z" />
<glyph unicode="&#xe904;" glyph-name="filter" d="M160 832v-75l7-9 249-311.002v-372.998l51.002 38 128 96 12.998 10v228.998l256 320.002v75h-704zM233 768h558.002l-230.003-288h-97.997l-230.002 288zM480 416h64v-176l-64-48v224z" />
<glyph unicode="&#xe905;" glyph-name="contacts" d="M512 832c-123.376 0-224-100.625-224-224 0-76.624 38.998-144.624 98-184.998-114.5-48.752-194-162.502-194-295.002h64c0 142.874 113.126 256 256 256s256-113.126 256-256h64c0 132.499-79.501 246.25-194 295.002 59.002 40.374 98 108.374 98 184.998 0 123.375-100.624 224-224 224zM512 768c88.749 0 160-71.25 160-160s-71.251-160-160-160-160 71.251-160 160c0 88.75 71.251 160 160 160z" />
<glyph unicode="&#xe906;" glyph-name="team" d="M96 544c0 105.625 86.375 192 192 192s192-86.375 192-192c0-63.501-31.251-120-79.002-155.002 46.627-23.123 85.75-59.622 111.002-104.998 25.251 45.376 64.374 81.875 111.002 104.998-47.75 35.002-79.002 91.501-79.002 155.002 0 105.625 86.374 192 192 192 70.499 0 134.624-45.125 184.998-87 50.378-41.874 87.002-84.002 87.002-84.002l18-20.998-18.998-21.002c0 0-36.253-42.125-87.002-83.997-21.126-17.501-44.749-34.877-70-50.003 84-42.125 142-128.998 142-228.998h-64c0 106.374-85.626 192-192 192s-192-85.626-192-192h-64c0 106.374-85.626 192-192 192s-192-85.626-192-192h-64c0 100.374 58.625 187.126 143 228.998-47.75 35.002-79 91.501-79 155.002zM416 544c0 71.126-56.874 128-128 128s-128-56.874-128-128 56.875-128 128-128c71.126 0 128 56.874 128 128zM880 599.002c-45.75 38.125-104.624 72.998-144 72.998-71.002 0-128-56.998-128-128s56.998-128 128-128c37.126 0 96.624 34.874 143.002 72.998 29.251 24.125 42.205 38.048 53.261 49.93 1.603 1.725 3.168 3.408 4.736 5.072-1.667 1.808-3.331 3.638-5.040 5.523-10.723 11.808-23.395 25.763-51.958 49.478z" />
<glyph unicode="&#xe907;" glyph-name="people" d="M512 704c-88 0-160-72-160-160 0-48.499 22.624-91.626 56.998-120.998-34.125-17.875-64-44.877-84.998-77.002-11.375 16.499-26.375 31.75-43 43.002 23.75 23.248 39 55.373 39 90.998 0 70.374-57.625 128-128 128s-128-57.626-128-128c0-35.626 15.25-67.75 39-90.998-42.625-28.877-71-78.128-71-133.002h64c0 53.002 43 96 96 96s96-42.998 96-96v-32h64c0 88.125 71.875 160 160 160s160-71.875 160-160h64v32c0 53.002 43.002 96 96 96s96-42.998 96-96h64c0 54.874-28.374 104.125-71.002 133.002 23.75 23.248 39.002 55.373 39.002 90.998 0 70.374-57.626 128-128 128s-128-57.626-128-128c0-35.626 15.251-67.75 39.002-90.998-16.627-11.251-31.626-26.502-43.002-43.002-20.998 32.125-50.874 59.126-84.998 77.002 34.374 29.373 56.998 72.499 56.998 120.998 0 88-72 160-160 160zM512 640c53.376 0 96-42.624 96-96s-42.624-96-96-96c-53.376 0-96 42.624-96 96s42.624 96 96 96zM192 544c35.75 0 64-28.25 64-64s-28.25-64-64-64c-35.75 0-64 28.25-64 64s28.25 64 64 64zM832 544c35.75 0 64-28.25 64-64s-28.25-64-64-64c-35.75 0-64 28.25-64 64s28.25 64 64 64z" />
<glyph unicode="&#xe908;" glyph-name="info" d="M512 864c-229.375 0-416-186.625-416-416s186.625-416 416-416c229.376 0 416 186.624 416 416s-186.624 416-416 416zM512 800c194.749 0 352-157.25 352-352s-157.251-352-352-352c-194.75 0-352 157.251-352 352s157.25 352 352 352zM480 640v-64h64v64h-64zM480 512v-256h64v256h-64z" />
<glyph unicode="&#xe909;" glyph-name="signout" d="M128 448c0 211.75 172.25 384 384 384 129.626 0 244.499-64.375 314-163l-52-37c-58 82.25-153.501 136-262 136-177.126 0-320-142.874-320-320s142.874-320 320-320c108.499 0 204.125 53.75 262 136l52-36.998c-69.501-98.627-184.374-163.002-314-163.002-211.75 0-384 172.25-384 384zM701.002 552.998l46 46.003 128-128 21.997-23.002-21.997-23.002-128-128-46 46.003 72.998 72.998h-390v64h390l-72.998 72.998z" />
<glyph unicode="&#xe90a;" glyph-name="image-gallery" d="M64 800v-576h128v-128h768v576h-128v128h-768zM128 736h640v-358.064l-155.187 155.19-121.126-121.126-159.062 160.499-204.624-204.624v368.125zM656 672c-26.496 0-48-21.504-48-48s21.504-48 48-48c26.496 0 48 21.504 48 48s-21.504 48-48 48zM832 608h64v-448h-640v64h576v384zM332.438 481.811l192-193.811h-385.813l193.813 193.811zM612.813 442.563l154.624-154.563h-152.874l-77.814 78.499 76.064 76.064z" />
<glyph unicode="&#xe90b;" glyph-name="favorites" d="M64 560c0 131.125 107.625 240 240 240 109.875 0 180.624-66.125 208-94 27.376 27.875 98.125 94 208 94 132.374 0 240-108.875 240-240 0-91.376-79.002-160.998-79.002-160.998l-368.998-370.003-23.002 23.002-345.998 347.002c0 0-19.75 18.374-39 46.998s-40 68.25-40 114zM488 643c0 0-88.374 93-184 93-97.375 0-176-79.875-176-176 0-24.749 13.5-54.874 29-78s31-38 31-38l324-324 324 324c0 0 60 66.624 60 116 0 96.125-78.624 176-176 176-95.626 0-184-93-184-93l-24-27-24 27z" />
<glyph unicode="&#xe90c;" glyph-name="favorites-fill" d="M512 708.672c37.536 33.6 115.456 91.328 208 91.328 132.352 0 240-107.648 240-240 0-82.88-75.68-158.304-78.912-161.504l-369.088-369.088-369.28 369.28c-3.040 3.008-78.72 78.432-78.72 161.312 0 132.352 107.648 240 240 240 92.544 0 170.464-57.728 208-91.328z" />
<glyph unicode="&#xe90d;" glyph-name="eye" d="M416 480c0 52.998 43.002 96 96 96s96-43.002 96-96c0-52.998-43.002-96-96-96s-96 43.002-96 96zM40 468.998c0 0 205.25 235.002 472 235.002s472-235.002 472-235.002l19.002-20.998-19.002-20.998c0 0-187.126-213.376-436-233.002-11.875-1.501-23.75-2-36-2s-24.125 0.499-36 2c-248.875 19.626-436 233.002-436 233.002l-19 20.998 19 20.998zM704 595.002c-56.499 25.747-121.501 44.998-192 44.998-71.251 0-136.998-19.75-194-46h1c-19.75-33.376-31-72.25-31-114 0-115.626 86.749-210.624 199.002-223.002 8.25-0.499 16.499-0.998 24.998-0.998 5.555 0 11.043 0.32 16.515 0.64 2.163 0.128 4.323 0.253 6.486 0.358 0.31 0.064 0.656 0.032 0.998 0 0.342-0.029 0.688-0.061 0.998 0 112.253 12.378 199.002 107.376 199.002 223.002 0 42.374-11.626 81.251-32 115.002zM224 480c0 22.874 3 44.499 8 66-60.75-40.499-103.625-82.25-119-98 18.375-18.749 74.375-74.374 155-120.998-28 44.374-44 96.874-44 152.998zM911.002 448c-15.376 15.75-58.253 57.501-119.002 98 4.998-21.251 8-43.126 8-66 0-56.125-16-108.624-44-152.998 80.624 46.624 136.624 102.25 155.002 120.998z" />
<glyph unicode="&#xe90e;" glyph-name="invisible" d="M73 841l46 46 217-217c54.25 20.25 113.376 34 176 34 258.749 0 463.376-225.376 472-235.002l19.002-20.998-19.002-20.998c-5.626-6.253-96.499-105.875-232-173.002l199.002-198.998-46.003-46.003-216.998 217.002-60.998 62-355.002 355-199 198zM704 594c-58 26.624-123.126 46-192 46-43.626 0-85.251-8.749-125.002-20.998l65.002-65.002c16.374 13.376 37.126 22 60 22 52.998 0 96-43.002 96-96 0-22.874-8.624-43.626-22-60l90.998-91.002c36.502 39.75 59.002 92.877 59.002 151.002 0 40.499-11.376 79.501-32 114zM915.002 448c-24 23.126-66.877 61.501-123.002 98 5.126-21.501 8-43.626 8-66 0-55.626-16.499-107.875-44-152 73.376 42 130.25 92.25 159.002 120zM40 469.002c4.75 5.373 71.375 78.874 174 142l80-81.002c-3.75-16.374-6-32.998-6-50 0-123.501 100.499-224 224-224 17.251 0 33.75 2.25 50 6l57.002-56.998c-24.877-5.75-50.627-9.251-77.002-11.002-9.875-0.998-19.875-2-30-2s-20.125 1.002-30 2c-244.25 16.374-433.75 223.75-442 233.002l-19 20.998 19 21.002zM224 480c0 22.374 2.875 44.374 8 66-56.125-36.499-99.125-74.874-123-98 28.75-27.75 84.75-76.998 158-119.002-27.375 44.128-43 95.376-43 151.002z" />
<glyph unicode="&#xe90f;" glyph-name="cards-view" d="M448 768h-256v-256h256v256zM832 768h-256v-256h256v256zM192 384h256v-256h-256v256zM832 384h-256v-256h256v256z" />
<glyph unicode="&#xe910;" glyph-name="line-view" d="M416 768h-256v-256h256v256zM416 384h-256v-256h256v256zM480 736h384v-64h-384v64zM736 608h-256v-64h256v64zM480 352h384v-64h-384v64zM736 224h-256v-64h256v64z" />
<glyph unicode="&#xe911;" glyph-name="table" d="M160 800v-704h704v704h-704zM224 736h160v-160h-160v160zM448 736h128v-160h-128v160zM640 736h160v-160h-160v160zM224 512h160v-128h-160v128zM448 512h128v-128h-128v128zM640 512h160v-128h-160v128zM224 320h160v-160h-160v160zM448 320h128v-160h-128v160zM640 320h160v-160h-160v160z" />
<glyph unicode="&#xe912;" glyph-name="tree" d="M96 608v192h384v-192h-160v-128h224v64h384v-192h-384v64h-224v-192h224v64h384v-192h-384v64h-288v448h-160zM160 736h256v-64h-256v64zM608 480h256v-64h-256v64zM864 224h-256v-64h256v64z" />
<glyph unicode="&#xe913;" glyph-name="check" d="M904.998 759l-552.998-553-233 233.002-46-46.003 255.998-256 23.002-21.997 23.002 21.997 576 576.002-46.003 46z" />
<glyph unicode="&#xe914;" glyph-name="double-check" d="M744.998 727l-376.998-377-89 89.002-46-46.003 89-88.998-66-66-201 201.002-46-46.003 224-224 23-21.997 23 21.997 89 89.002 88.998-89.002 23.002-21.997 23.002 21.997 508.998 512.002-46 46-486-489-66 66 377.002 377-46.003 46z" />
<glyph unicode="&#xe915;" glyph-name="expand-arrow-down" d="M233.372 553.373l45.255 45.254 233.372-233.373 233.373 233.373 45.254-45.254-278.627-278.627-278.628 278.627z" />
<glyph unicode="&#xe916;" glyph-name="expand-arrow" d="M512 352l-160 160h320l-160-160z" />
<glyph unicode="&#xe917;" glyph-name="lock" d="M512 864c-123.002 0-224-101-224-224v-96h-96v-512h640v512h-96v96c0 123-100.998 224-224 224zM512 800c88.125 0 160-71.875 160-160v-96h-320v96c0 88.125 71.875 160 160 160zM256 480h512v-384h-512v384z" />
<glyph unicode="&#xe918;" glyph-name="globe" d="M128 448c0 211.75 172.25 384 384 384s384-172.25 384-384c0-211.75-172.25-384-384-384s-384 172.25-384 384zM683.002 718c-49.501 31.25-108 50-171.002 50-5.731 0-11.462-0.59-17.123-1.173-2.982-0.307-5.946-0.612-8.877-0.828l70.998-5 17.002-74-96-18-26 36-55.002-12 19.002-85-128-61.002-86-68 31-62.998h119l128.998-97.002-33.997-128 34.998-60.998c1.712-0.15 3.427-0.31 5.146-0.47 8.198-0.762 16.483-1.53 24.854-1.53 49.376 0 96.374 11.126 138 30.998l51.002 160c0 0-23.626 58-27.002 58s-66.998-10.998-66.998-10.998l-62.003 50.998 31.002 96 55.002 41.002 56 8 51.997-32 22 40-86 28-68.998-22-5.002 66 28 24 34.003-15-6.003 64 26.003 3zM426 745l50 21c-25.875-2.875-50.374-8.375-74-17l24-4zM225 386.998l-31 36.003c10.125-131.501 98.25-240.877 219.002-280.003l-91.002 112h-37l-60 66v66z" />
<glyph unicode="&#xe919;" glyph-name="share" d="M512 832c-68.624 0-124.25-55-127.002-123-115.373-49-192.998-163.125-192.998-293 0-5.501-0.25-11.501 0-18-37.875-22.25-64-63.126-64-110 0-70.374 57.625-128 128-128 18.375 0 36.125 3.875 52 11.002 55.501-46.627 127.75-75.002 204-75.002s148.499 28.374 204 75.002c15.875-7.126 33.626-11.002 52-11.002 70.374 0 128 57.626 128 128 0 47.376-26.374 88.874-64.998 111.002 0.499 5.123 0.998 10.374 0.998 16.998 0 129.875-77.626 244-192.998 293-2.752 68-58.378 123-127.002 123v0zM512 768c35.75 0 64-28.25 64-64s-28.25-64-64-64c-35.75 0-64 28.25-64 64s28.25 64 64 64zM399.002 645c21.498-40.75 64-69 112.998-69s91.501 28.25 112.998 69c85.75-41.624 143.002-129.125 143.002-229-70.374 0-128-57.626-128-128 0-28.624 9.875-54.624 26-76-42.749-32.374-97.75-52-154-52s-111.251 19.626-154 52c16.125 21.376 26 47.376 26 76 0 70.374-57.626 128-128 128 0 99.875 57.25 187.376 143.002 229v0zM256 352c35.75 0 64-28.25 64-64s-28.25-64-64-64c-35.75 0-64 28.25-64 64s28.25 64 64 64zM768 352c35.75 0 64-28.25 64-64s-28.25-64-64-64c-35.75 0-64 28.25-64 64s28.25 64 64 64z" />
<glyph unicode="&#xe91a;" glyph-name="menu-vertical" d="M512 768c-35.376 0-64-28.625-64-64s28.624-64 64-64c35.376 0 64 28.625 64 64s-28.624 64-64 64zM512 512c-35.376 0-64-28.624-64-64s28.624-64 64-64c35.376 0 64 28.624 64 64s-28.624 64-64 64zM512 256c-35.376 0-64-28.624-64-64s28.624-64 64-64c35.376 0 64 28.624 64 64s-28.624 64-64 64z" />
<glyph unicode="&#xe91b;" glyph-name="more" d="M192 512c-35.375 0-64-28.624-64-64s28.625-64 64-64c35.375 0 64 28.624 64 64s-28.625 64-64 64zM512 512c-35.376 0-64-28.624-64-64s28.624-64 64-64c35.376 0 64 28.624 64 64s-28.624 64-64 64zM832 512c-35.376 0-64-28.624-64-64s28.624-64 64-64c35.376 0 64 28.624 64 64s-28.624 64-64 64z" />
<glyph unicode="&#xe91c;" glyph-name="plus" d="M480 800v-320h-320v-64h320v-320h64v320h320v64h-320v320h-64z" />
<glyph unicode="&#xe91d;" glyph-name="subtract" d="M224 480v-64h576v64h-576z" />
<glyph unicode="&#xe91e;" glyph-name="cancel" d="M279 727l-46-46 233-233-233-232.998 46-46.003 233 233.002 232.998-233.002 46.003 46.003-233.002 232.998 233.002 233-46.003 46-232.998-233-233 233z" />
<glyph unicode="&#xe91f;" glyph-name="trash" d="M435.002 832l-10.003-9-22.998-23h-210v-64h32v-576c0-52.624 43.375-96 96-96h384c52.624 0 96 43.376 96 96v576h32v64h-210l-22.998 23-10.003 9h-153.997zM462 768h100l22.998-23 10.003-9h140.998v-576c0-17.75-14.25-32-32-32h-384c-17.75 0-32 14.25-32 32v576h140.998l10.003 9 22.998 23zM352 608v-352h64v352h-64zM480 608v-352h64v352h-64zM608 608v-352h64v352h-64z" />
<glyph unicode="&#xe920;" glyph-name="notification" d="M512 864c-35.376 0-64-28.625-64-64 0-2.75 0.624-5.375 0.998-8-110.624-28.25-192.998-128.75-192.998-248v-288c0-18.125-13.875-32-32-32h-32v-64h230c-3.626-10.125-6-20.749-6-32 0-52.624 43.376-96 96-96s96 43.376 96 96c0 11.251-2.374 21.875-6 32h230v64h-32c-18.125 0-32 13.875-32 32v279.002c0 120.248-80.374 227.498-193.002 256.998 0.378 2.625 1.002 5.25 1.002 8 0 35.375-28.624 64-64 64zM498 736c4.624 0.375 9.251 0 14 0 2 0 4 0 6 0 104.499-3.125 186-94.75 186-200.998v-279.002c0-11.251 2.374-21.875 6-32h-396c3.625 10.125 6 20.749 6 32v288c0 101.625 78.25 184.75 178 192v0zM512 160c18 0 32-14 32-32s-14-32-32-32c-18 0-32 14-32 32s14 32 32 32z" />
<glyph unicode="&#xe921;" glyph-name="add-user" d="M672 288v96h64v-96h96v-64h-96v-96h-64v96h-96v64h96zM160 672c0 123.375 100.625 224 224 224s224-100.625 224-224c0-77.126-39.376-145.626-98.998-186 15.498-6.624 30.874-14.125 44.998-22.998 42.125 30.624 94.125 48.998 150 48.998 140.998 0 256-115.002 256-256s-115.002-256-256-256c-140.998 0-256 115.002-256 256 0 60.749 21.501 116.998 56.998 160.998-36 19.501-76.998 31.002-120.998 31.002-141.75 0-256-114.25-256-256h-64c0 131.75 80.875 244.998 195 294-59.625 40.374-99 108.874-99 186zM544 672c0 88.75-71.251 160-160 160s-160-71.25-160-160c0-88.749 71.25-160 160-160s160 71.251 160 160zM896 256c0 106.374-85.626 192-192 192s-192-85.626-192-192c0-106.374 85.626-192 192-192s192 85.626 192 192z" />
</font>
</defs>
</svg>
